<?xml version="1.0" encoding="utf-8"?>
<!-- Generator: Adobe Illustrator 16.0.0, SVG Export Plug-In . SVG Version: 6.00 Build 0)  -->
<!DOCTYPE svg PUBLIC "-//W3C//DTD SVG 1.1//EN" "http://www.w3.org/Graphics/SVG/1.1/DTD/svg11.dtd">
<svg version="1.1" id="OneDrive" xmlns="http://www.w3.org/2000/svg" xmlns:xlink="http://www.w3.org/1999/xlink" x="0px" y="0px"
	 width="420px" height="250.151px" viewBox="89 2 420 250.151" enable-background="new 89 2 420 250.151" xml:space="preserve">
<path fill="#526A80" d="M509,207.368c0,24.737-20.052,44.783-44.783,44.783H237.621c-30.063,0-54.43-24.366-54.43-54.431
	c0-30.062,24.367-54.429,54.43-54.429c2.126,0,4.208,0.144,6.266,0.379c0.927-40.431,33.944-72.954,74.61-72.954
	c25.795,0,48.535,13.071,61.957,32.964c8.157-4.01,17.311-6.327,27.018-6.327c33.898,0,61.379,27.474,61.379,61.38
	c0,1.375-0.113,2.719-0.204,4.078C491.295,165.038,509,184.135,509,207.368z M230.086,128.254
	c8.112-41.396,45.012-72.979,88.411-72.979c25.778,0,50.039,10.976,67.022,29.858c7.103-2.142,14.454-3.221,21.951-3.221
	c0.045,0,0.083,0,0.121,0C402.549,36.954,364.442,2,318.148,2c-35.084,0-65.414,20.105-80.277,49.386
	c-9.434-5.362-20.303-8.469-31.932-8.469c-35.737,0-64.713,28.977-64.713,64.721c0,5.432,0.744,10.672,2.005,15.708
	C113.062,124.736,89,149.559,89,180.077c0,31.399,25.46,56.86,56.86,56.86h33.975c-7.618-11.188-12.084-24.693-12.084-39.217
	C167.75,161.734,195.094,132.02,230.086,128.254z"/>
</svg>
